<?xml version="1.0" standalone="no"?>
<!DOCTYPE svg PUBLIC "-//W3C//DTD SVG 20010904//EN"
 "http://www.w3.org/TR/2001/REC-SVG-20010904/DTD/svg10.dtd">
<svg version="1.0" xmlns="http://www.w3.org/2000/svg"
 width="101.000000pt" height="78.000000pt" viewBox="0 0 101.000000 78.000000"
 preserveAspectRatio="xMidYMid meet">
<metadata>
Created by potrace 1.16, written by Peter Selinger 2001-2019
</metadata>
<g transform="translate(0.000000,78.000000) scale(0.100000,-0.100000)"
fill="#ffffff" stroke="none">
<path d="M277 613 c-4 -3 -7 -53 -7 -110 0 -84 -3 -103 -15 -104 -8 -1 -21 -2
-27 -3 -9 -1 -14 -23 -16 -66 l-3 -65 197 3 c181 3 198 1 230 -17 l34 -20 0
59 0 60 40 0 41 0 -3 62 c-4 75 -28 96 -28 24 l0 -46 -38 0 -38 0 -44 93 c-68
141 -62 137 -200 137 -64 0 -120 -3 -123 -7z m281 -135 c28 -55 42 -96 42
-120 l0 -38 -145 0 -145 0 0 120 0 120 103 0 103 0 42 -82z"/>
<path d="M405 505 c-3 -8 -7 -22 -10 -30 -2 -8 -14 -15 -25 -15 -15 0 -20 -7
-20 -25 0 -20 5 -25 24 -25 18 0 25 -6 28 -22 2 -15 11 -24 25 -26 17 -2 23 3
28 27 5 24 12 31 31 31 19 0 24 5 24 25 0 20 -5 25 -25 25 -18 0 -26 7 -31 25
-7 28 -42 35 -49 10z"/>
<path d="M760 321 c0 -12 -17 -40 -37 -62 -35 -38 -38 -46 -35 -91 2 -28 -1
-55 -8 -63 -10 -12 11 -14 139 -17 83 -2 151 0 151 3 0 4 -18 19 -40 34 -22
15 -40 32 -40 36 0 5 -6 9 -13 9 -11 0 -29 45 -55 140 -10 33 -62 43 -62 11z"/>
<path d="M195 205 c-14 -13 -25 -36 -25 -50 0 -14 11 -37 25 -50 24 -25 25
-25 220 -25 l196 0 26 26 c20 20 24 31 19 57 -12 63 -26 67 -243 67 -193 0
-194 0 -218 -25z m95 -45 c0 -29 -25 -43 -44 -25 -20 21 -20 32 1 43 22 13 43
4 43 -18z m98 8 c13 -13 -1 -38 -22 -38 -18 0 -35 21 -29 36 6 17 35 18 51 2z
m105 -2 c7 -19 -18 -40 -38 -32 -8 3 -15 15 -15 26 0 14 7 20 24 20 13 0 26
-6 29 -14z m102 -11 c0 -31 -49 -28 -53 3 -3 20 0 23 25 20 20 -2 28 -8 28
-23z"/>
</g>
</svg>
